# xmcd
#
# Track frame offsets: 
#        150
#        11995
#        21007
#        32402
#        43147
#        61615
#        90920
#        111982
#        129385
#        146310
#        161227
#        174457
#        187362
#        202882
#        218710
#        244725
#        270115
#        287167
#        315405
#
# Disc length: 4378 seconds
#
# Revision: 3
# Processed by: cddbd v1.5.2PL0 Copyright (c) Steve Scherf et al.
# Submitted via: ExactAudioCopyFreeDBPlugin 1.0
#
DISCID=02111813
DTITLE=Bobby Womack - Lookin' for a Love:  The Best of Bobby Womack, 1
DTITLE=968-1976
DYEAR=2003
DGENRE=Soul
TTITLE0=Lookin' for a Love
TTITLE1=I'm a Midnight Mover
TTITLE2=What is This
TTITLE3=Holdin' on to My Baby's Love
TTITLE4=Everything's Gonna Be Alright
TTITLE5=I Can Understand It
TTITLE6=Communication
TTITLE7=Harry Hippy
TTITLE8=Across 110th Street
TTITLE9=California Dreamin'
TTITLE10=Nobody Wants You When You're Down and Out
TTITLE11=(If You Don't Want My Love) Give it Back
TTITLE12=I Dont Wanna Be Hurt By Ya Love Again
TTITLE13=Woman's Gotta Have It
TTITLE14=Jealous Love
TTITLE15=Doing it My Way
TTITLE16=Check it Out
TTITLE17=Where There's a Will Theres a Way
TTITLE18=It's All Over Now
EXTD=
EXTT0=
EXTT1=
EXTT2=
EXTT3=
EXTT4=
EXTT5=
EXTT6=
EXTT7=
EXTT8=
EXTT9=
EXTT10=
EXTT11=
EXTT12=
EXTT13=
EXTT14=
EXTT15=
EXTT16=
EXTT17=
EXTT18=
PLAYORDER=
